<?xml version="1.0" standalone="no"?>
<!DOCTYPE svg PUBLIC "-//W3C//DTD SVG 20010904//EN"
 "http://www.w3.org/TR/2001/REC-SVG-20010904/DTD/svg10.dtd">
<svg version="1.0" xmlns="http://www.w3.org/2000/svg"
 width="624.000000pt" height="620.000000pt" viewBox="0 0 624.000000 620.000000"
 preserveAspectRatio="xMidYMid meet">

<g transform="translate(0.000000,620.000000) scale(0.100000,-0.100000)"
fill="#000000" stroke="none">
<path d="M2873 6155 c-95 -7 -180 -16 -190 -19 -10 -4 -52 -11 -93 -17 -42 -5
-130 -23 -195 -40 -66 -17 -136 -35 -156 -40 -159 -39 -554 -211 -691 -301
-20 -13 -69 -43 -109 -68 -80 -49 -283 -199 -339 -250 -200 -182 -340 -336
-476 -525 -149 -205 -298 -479 -368 -675 -15 -41 -32 -86 -37 -100 -45 -108
-106 -344 -139 -535 -18 -107 -40 -367 -40 -480 0 -104 24 -410 35 -444 2 -9
9 -45 14 -81 10 -67 29 -152 56 -255 9 -33 21 -78 26 -100 5 -22 13 -49 18
-60 5 -11 19 -47 30 -80 18 -55 26 -79 52 -140 56 -138 77 -182 116 -255 26
-47 53 -98 61 -115 28 -54 189 -292 257 -380 104 -133 232 -266 410 -426 52
-47 240 -189 250 -189 3 0 29 -18 58 -39 29 -22 70 -49 92 -61 22 -12 56 -31
75 -42 90 -53 302 -153 413 -194 247 -92 372 -126 672 -181 145 -26 703 -26
850 0 186 34 260 49 330 69 39 11 88 24 110 29 56 14 190 60 290 99 276 110
662 347 844 518 19 17 37 32 41 32 19 0 270 270 386 416 263 329 505 858 573
1254 4 25 13 72 19 105 35 186 42 271 42 517 -1 176 -5 277 -15 333 -8 44 -15
97 -15 117 0 20 -5 49 -10 64 -6 14 -15 54 -20 88 -5 33 -23 111 -40 171 -17
61 -35 126 -40 145 -5 19 -19 60 -31 90 -11 30 -23 66 -26 80 -3 14 -9 30 -13
35 -4 6 -24 51 -45 100 -34 83 -104 224 -167 335 -77 135 -236 351 -349 476
-41 44 -83 91 -95 105 -11 13 -38 40 -60 59 -21 19 -68 62 -105 95 -36 33 -76
69 -90 80 -56 46 -148 115 -154 115 -3 0 -40 25 -80 55 -41 30 -77 55 -80 55
-2 0 -45 25 -95 55 -50 30 -94 55 -98 55 -4 0 -57 25 -119 55 -112 56 -225
102 -273 112 -14 3 -29 9 -35 13 -15 10 -95 38 -140 49 -22 5 -71 18 -110 29
-38 11 -110 27 -160 36 -49 9 -112 21 -140 27 -50 10 -423 40 -480 37 -16 0
-107 -6 -202 -13z m377 -175 c376 -23 683 -94 978 -226 29 -13 55 -24 58 -24
15 0 236 -117 328 -172 302 -184 629 -487 831 -772 106 -150 240 -390 305
-546 13 -30 27 -59 32 -64 4 -6 8 -16 8 -24 0 -8 6 -28 13 -45 27 -64 41 -107
72 -222 30 -110 46 -180 55 -232 4 -28 12 -57 16 -64 4 -7 11 -53 15 -103 5
-50 13 -127 18 -171 11 -97 6 -395 -9 -525 -10 -86 -16 -125 -40 -255 -12 -61
-37 -164 -55 -225 -9 -30 -20 -68 -25 -85 -26 -90 -118 -315 -179 -435 -173
-339 -449 -681 -731 -907 -36 -29 -79 -63 -96 -78 -18 -14 -35 -25 -38 -25 -4
0 -30 -18 -59 -39 -113 -85 -321 -201 -519 -289 -61 -28 -175 -69 -271 -98
-42 -12 -82 -26 -87 -29 -6 -3 -31 -10 -58 -15 -26 -5 -90 -18 -142 -29 -94
-20 -290 -44 -465 -56 -92 -7 -353 7 -480 26 -460 68 -845 216 -1240 477 -55
37 -106 72 -115 79 -8 8 -55 47 -105 87 -87 72 -248 230 -317 310 -18 22 -49
58 -68 80 -55 64 -91 113 -162 221 -173 265 -287 510 -368 790 -50 175 -51
180 -100 475 -20 121 -18 549 4 700 70 485 217 867 493 1280 109 164 306 386
453 510 113 96 126 107 164 135 78 60 172 126 231 162 81 49 342 182 435 221
251 104 610 184 903 202 67 4 129 8 137 8 8 1 89 -3 180 -8z"/>
<path d="M2865 5889 c-49 -5 -119 -14 -155 -19 -36 -6 -90 -15 -120 -19 -30
-5 -75 -14 -100 -20 -133 -36 -160 -43 -210 -58 -30 -9 -64 -20 -75 -24 -11
-5 -42 -16 -70 -25 -50 -16 -98 -38 -270 -119 -100 -48 -300 -167 -385 -229
-166 -122 -365 -305 -475 -436 -123 -147 -141 -169 -172 -212 -144 -197 -344
-597 -384 -768 -4 -19 -15 -60 -24 -90 -157 -522 -142 -1156 40 -1670 7 -19
18 -53 25 -75 13 -42 20 -59 98 -225 93 -200 255 -453 378 -590 17 -19 53 -60
81 -90 66 -74 227 -230 283 -274 25 -20 50 -40 55 -44 67 -54 185 -135 277
-190 104 -63 336 -182 353 -182 4 0 21 -6 38 -14 116 -49 280 -102 457 -146
71 -18 228 -40 360 -50 74 -6 160 -12 190 -15 94 -7 529 37 630 64 19 5 67 17
105 26 425 101 890 354 1219 664 149 141 385 426 452 548 15 26 44 75 64 108
45 73 160 311 160 330 0 8 4 16 9 20 5 3 13 19 16 36 4 17 15 50 25 73 10 22
34 100 53 171 86 317 111 511 104 815 -9 374 -69 666 -208 1018 -73 182 -235
469 -343 606 -175 220 -409 452 -572 566 -213 149 -351 230 -527 308 -64 29
-121 52 -126 52 -5 0 -22 7 -38 15 -68 36 -346 109 -528 139 -208 35 -481 45
-690 25z m153 -168 c16 -10 -42 -65 -106 -101 -46 -26 -54 -53 -27 -100 8 -14
14 -47 15 -75 0 -60 -43 -179 -72 -199 -19 -13 -24 -12 -52 8 -17 13 -41 27
-54 31 -13 4 -22 10 -20 13 2 4 20 41 40 82 39 78 55 146 40 168 -6 9 -48 15
-131 19 -136 7 -152 15 -107 60 14 14 26 30 26 36 0 6 23 7 61 3 52 -5 65 -3
87 14 24 19 26 19 44 4 26 -25 88 -19 166 15 79 34 74 33 90 22z m483 -19 c52
-7 59 -11 117 -73 94 -101 112 -162 71 -244 -21 -43 -94 -99 -155 -120 -18 -6
-38 -16 -45 -22 -8 -6 -30 -10 -49 -8 -19 2 -52 4 -72 4 -23 1 -38 6 -38 14
-1 6 -25 31 -53 54 -90 72 -124 179 -81 254 11 19 49 53 84 77 47 31 65 49 64
64 -1 19 3 20 50 13 28 -3 76 -10 107 -13z m516 -226 l6 -77 25 36 c25 35 51
46 53 23 1 -7 2 -26 3 -43 1 -26 4 -30 26 -26 23 3 101 56 108 73 8 18 33 6
45 -19 6 -16 17 -32 24 -36 22 -13 15 -55 -11 -72 -14 -9 -59 -22 -101 -30
-43 -7 -82 -18 -87 -23 -14 -14 31 -94 82 -150 22 -24 40 -47 40 -52 0 -5 -12
-12 -27 -16 -16 -3 -42 -13 -60 -22 -27 -14 -34 -14 -49 -1 -29 23 -74 134
-74 181 0 24 -4 50 -9 57 -8 12 -13 11 -30 -10 -11 -13 -20 -27 -21 -31 0 -15
-95 -98 -111 -98 -21 0 -58 69 -62 113 -2 27 3 34 33 49 46 23 54 47 23 71
-12 10 -23 23 -23 28 0 19 31 21 50 4 45 -40 81 7 81 107 1 69 14 88 42 59 13
-13 20 -39 24 -95z m-1820 70 c15 -8 53 -21 84 -30 69 -20 103 -45 129 -97 38
-73 21 -155 -47 -232 -19 -21 -33 -48 -33 -62 0 -15 -6 -25 -14 -25 -8 0 -39
-13 -69 -29 -33 -18 -59 -25 -64 -20 -5 5 -38 17 -72 25 -180 46 -235 149
-157 298 29 55 32 67 20 77 -12 10 -10 15 16 30 17 11 36 19 43 19 6 0 37 13
67 29 67 35 62 34 97 17z m-484 -386 c4 -30 14 -61 21 -68 11 -12 17 -9 35 17
42 58 65 26 31 -42 -30 -60 -24 -78 37 -107 51 -25 68 -43 57 -61 -8 -13 -88
-1 -140 21 -40 17 -41 17 -93 -7 -29 -14 -50 -30 -47 -37 36 -81 55 -137 50
-149 -6 -17 -108 -29 -135 -15 -10 4 -22 30 -28 60 -18 82 -60 156 -119 208
-43 38 -50 49 -39 59 17 14 62 0 128 -41 55 -33 65 -34 72 -8 4 14 14 20 35
20 39 0 48 14 28 45 -9 13 -25 49 -37 80 -28 75 -19 85 69 82 l67 -2 8 -55z
m2915 51 c9 -5 25 -12 35 -15 9 -3 17 -14 17 -24 0 -26 20 -41 71 -56 36 -11
45 -19 56 -51 17 -50 11 -67 -37 -100 -58 -40 -73 -80 -69 -184 l4 -86 -35 -3
c-19 -1 -48 -3 -65 -5 l-30 -2 -1 90 c-1 111 0 110 -20 129 -14 14 -20 13 -64
-9 -27 -14 -66 -25 -86 -25 -40 0 -98 31 -114 60 -18 33 -12 78 12 94 34 24
55 19 101 -24 l43 -39 35 17 c35 18 39 31 24 84 -11 41 18 48 54 14 l28 -27
13 31 c11 26 10 38 -8 85 -21 54 -21 55 -2 55 11 0 28 -4 38 -9z m-1228 -81
c19 -5 76 -16 125 -26 117 -22 336 -95 450 -150 389 -189 672 -445 884 -799
82 -138 157 -306 196 -440 10 -33 21 -71 26 -85 7 -24 34 -155 58 -286 14 -74
15 -414 1 -481 -5 -26 -16 -91 -25 -143 -20 -116 -36 -173 -87 -315 -41 -112
-138 -317 -164 -346 -8 -8 -14 -19 -14 -22 0 -4 -25 -44 -57 -90 -287 -418
-720 -714 -1218 -831 -333 -79 -667 -73 -1009 18 -54 15 -111 33 -127 41 -15
8 -34 15 -41 15 -20 0 -193 80 -278 128 -212 120 -334 215 -496 382 -251 261
-431 609 -516 1000 -26 119 -30 161 -35 351 -5 191 -3 233 17 355 40 254 90
408 216 658 139 274 355 519 637 719 22 16 46 35 54 43 8 8 19 14 24 14 5 0
32 15 61 34 202 128 545 239 823 267 97 9 446 2 495 -11z m1705 -330 c15 -16
19 -40 21 -131 1 -61 5 -113 8 -116 3 -4 30 1 60 10 56 18 95 22 97 10 5 -33
4 -125 -1 -134 -4 -5 -40 -15 -81 -20 -41 -6 -79 -15 -86 -21 -7 -5 -15 -30
-19 -55 -7 -47 -33 -83 -59 -83 -8 0 -24 -6 -35 -12 -18 -11 -23 -9 -45 17
-30 37 -30 37 0 85 14 22 25 46 25 53 0 7 4 17 9 23 5 5 15 32 24 59 39 127
31 143 -44 88 -60 -44 -90 -55 -164 -57 l-50 -1 -1 55 c-1 82 4 88 81 88 77 1
117 7 168 29 37 16 37 16 37 75 0 50 3 58 18 58 11 0 27 -9 37 -20z m-3891 1
c3 -4 -17 -20 -44 -35 -63 -34 -156 -136 -164 -180 -8 -41 8 -86 30 -86 37 0
144 80 144 107 0 7 5 13 12 13 6 0 9 3 6 6 -4 3 -20 -2 -37 -10 -39 -21 -43
-20 -39 7 2 14 23 35 58 59 40 26 56 44 60 65 7 36 35 43 44 10 5 -20 13 -25
52 -30 83 -9 132 -86 117 -182 -8 -51 -62 -143 -105 -179 -72 -60 -157 -85
-228 -66 -48 13 -55 22 -32 43 80 75 83 77 126 77 32 0 54 8 84 29 50 37 51
39 62 104 9 57 -8 102 -42 113 -29 9 -38 -4 -38 -55 0 -45 -4 -53 -53 -104
-77 -79 -126 -107 -189 -109 -44 -1 -55 3 -74 25 -50 58 -36 168 32 260 58 79
196 154 218 118z m441 -3418 c0 -82 8 -112 20 -74 7 24 43 37 58 22 7 -7 7
-18 -1 -36 -15 -32 -8 -45 22 -45 25 0 101 34 111 50 15 24 34 6 54 -50 12
-33 19 -64 16 -70 -11 -18 -85 -31 -158 -28 l-72 3 -3 -29 c-4 -31 19 -90 55
-145 31 -45 29 -61 -5 -61 -15 0 -42 -4 -60 -9 -18 -6 -40 -7 -48 -4 -26 10
-47 109 -41 195 6 87 8 86 -63 27 -46 -38 -119 -74 -129 -64 -9 9 -30 97 -31
127 0 24 6 29 43 39 63 19 72 28 47 54 -39 41 -15 70 31 36 15 -11 35 -21 44
-21 21 0 54 75 55 121 0 42 7 51 35 47 18 -3 20 -10 20 -85z m3092 51 c2 -6
-19 -36 -46 -66 -38 -42 -73 -66 -145 -101 -53 -26 -96 -49 -96 -51 0 -18 15
-36 30 -36 10 0 41 15 68 34 51 34 118 54 133 39 11 -12 -20 -102 -40 -112 -9
-5 -33 -11 -53 -15 -79 -14 -55 -46 33 -46 70 0 152 39 220 107 26 25 49 41
51 36 3 -4 2 -36 -1 -70 -8 -75 -32 -104 -125 -155 -55 -30 -69 -33 -143 -33
-81 0 -82 0 -121 38 l-39 38 -15 -22 c-9 -15 -20 -20 -31 -16 -19 7 -23 42 -7
52 13 8 13 60 -1 108 -10 36 -12 37 -54 37 -37 0 -45 3 -45 19 0 19 18 31 49
31 10 0 28 11 41 25 13 14 33 25 44 25 27 0 101 59 138 110 30 40 30 40 91 38
33 -2 62 -8 64 -14z m-533 -270 c13 -5 11 -13 -13 -47 -16 -23 -45 -58 -65
-76 -20 -19 -36 -38 -36 -42 0 -4 13 -29 30 -56 49 -80 56 -125 33 -213 -16
-64 -22 -75 -42 -78 -13 -2 -28 1 -34 7 -6 6 -24 11 -39 11 -36 0 -42 17 -27
71 19 72 27 162 16 187 -7 16 -19 22 -42 22 -17 0 -35 -3 -38 -7 -4 -3 -17 -7
-30 -8 -12 -2 -55 -6 -94 -10 -40 -4 -73 -5 -73 -1 0 20 42 94 56 100 8 3 33
6 54 6 36 0 70 20 70 41 0 12 47 12 54 0 13 -21 167 51 190 88 8 13 9 13 30 5z
m-1979 -77 c8 -18 21 -23 68 -27 50 -4 60 -9 77 -35 27 -41 24 -74 -10 -115
-26 -29 -30 -43 -30 -91 0 -39 8 -74 25 -113 l25 -56 -54 -25 c-30 -14 -59
-25 -65 -25 -16 0 -28 30 -36 90 -16 117 -43 137 -107 78 -44 -41 -86 -54
-148 -45 -87 11 -121 110 -48 140 27 11 37 11 63 -2 16 -8 36 -21 43 -28 14
-14 19 -12 64 20 28 21 28 35 -4 76 -14 18 -15 27 -7 37 16 19 29 17 56 -7 24
-23 25 -22 37 32 4 19 -1 32 -20 50 -30 28 -47 56 -40 67 2 4 26 6 53 4 39 -3
51 -8 58 -25z m569 -117 c109 0 160 -17 219 -72 31 -29 37 -42 37 -75 0 -52
-26 -84 -90 -112 -27 -12 -50 -26 -50 -31 0 -5 21 -25 48 -44 26 -19 56 -43
66 -52 19 -17 19 -18 2 -28 -10 -6 -34 -23 -53 -38 -45 -35 -63 -35 -98 -1
-36 37 -55 76 -74 152 -19 78 -36 88 -50 29 -16 -64 -50 -125 -89 -159 l-34
-30 -39 53 c-42 58 -46 73 -25 85 37 21 106 151 106 200 0 47 -8 53 -55 38
-39 -11 -44 -11 -50 3 -3 9 -2 18 2 19 36 12 78 44 79 59 1 11 2 23 3 28 1 4
12 1 26 -8 18 -12 49 -16 119 -16z m605 -57 c14 3 40 11 58 18 28 11 36 11 66
-6 48 -26 58 -45 45 -88 -21 -69 11 -139 91 -197 22 -17 41 -36 41 -43 -1 -15
-74 -97 -87 -97 -5 0 -35 31 -67 70 -46 56 -63 70 -85 70 -25 0 -30 -5 -41
-45 -7 -24 -27 -61 -44 -80 -27 -31 -39 -37 -87 -42 -48 -5 -58 -2 -83 19 -24
21 -27 29 -21 56 9 44 52 66 102 53 43 -12 46 -11 67 34 20 42 17 49 -34 75
-31 16 -37 24 -33 41 5 18 11 20 44 15 38 -6 39 -6 39 24 0 28 -6 33 -60 56
-52 23 -58 29 -49 45 5 11 18 19 28 19 11 0 22 7 25 16 6 15 9 15 32 -1 15
-10 37 -15 53 -12z"/>
<path d="M3360 5628 c-14 -5 -37 -21 -52 -35 -24 -23 -28 -35 -28 -79 0 -63
31 -107 96 -136 26 -11 51 -32 64 -53 12 -19 25 -35 29 -35 18 0 73 34 101 61
59 60 32 161 -54 204 -27 14 -55 25 -62 25 -6 0 -25 13 -40 29 -24 24 -33 27
-54 19z"/>
<path d="M2021 5394 c-30 -38 -37 -89 -18 -130 25 -52 60 -69 142 -70 46 0 81
-6 103 -18 40 -21 56 -12 83 49 23 50 24 77 2 122 -25 52 -65 66 -173 57 -60
-4 -89 -3 -94 5 -11 17 -23 13 -45 -15z"/>
<path d="M4643 5028 c-70 -77 -41 -114 36 -45 36 32 38 42 12 57 -26 13 -24
14 -48 -12z"/>
<path d="M2965 5060 c-262 -22 -501 -89 -726 -201 -64 -32 -140 -74 -169 -94
-28 -19 -54 -35 -57 -35 -12 0 -160 -118 -229 -182 -105 -99 -236 -254 -316
-374 -69 -102 -166 -295 -199 -394 -10 -30 -25 -73 -33 -95 -16 -45 -39 -148
-62 -275 -20 -109 -29 -414 -16 -500 6 -36 16 -96 22 -135 6 -38 15 -92 20
-120 4 -27 12 -61 18 -75 6 -14 20 -56 31 -93 67 -215 199 -457 345 -627 260
-305 562 -511 911 -621 39 -12 89 -28 113 -35 23 -8 51 -14 62 -14 10 0 44 -6
74 -14 84 -22 319 -39 431 -32 161 11 390 47 408 65 5 5 11 28 12 50 3 59 23
98 60 119 49 29 65 15 65 -58 0 -44 4 -60 14 -60 8 0 15 17 19 48 10 83 54
136 135 163 27 9 33 15 28 31 -6 26 49 84 121 126 70 41 97 45 101 12 2 -18
-10 -38 -44 -72 -25 -27 -51 -48 -57 -48 -6 0 -2 -7 10 -15 18 -13 20 -20 13
-45 -5 -16 -22 -43 -40 -60 -39 -38 -26 -38 47 1 204 111 411 291 588 513 145
181 278 463 344 721 29 117 39 183 51 341 28 368 -56 748 -238 1079 -140 255
-371 509 -607 666 -72 48 -160 103 -197 123 -93 49 -273 119 -388 151 -195 54
-474 81 -665 65z m550 -181 c8 -15 15 -35 15 -43 0 -16 -59 -66 -78 -66 -19 0
-54 69 -48 94 6 25 61 57 83 49 8 -3 20 -18 28 -34z m175 26 c25 -30 -45 -97
-85 -82 -17 7 -35 46 -28 63 11 31 92 44 113 19z m176 -40 c9 -35 -1 -53 -31
-61 -41 -10 -75 10 -75 44 0 38 6 42 56 42 38 0 44 -3 50 -25z m129 -107 c9
-40 26 -86 37 -102 20 -28 20 -28 1 -55 -13 -17 -31 -27 -53 -29 l-33 -3 7 50
c6 44 3 57 -19 94 -29 51 -32 92 -7 106 39 23 49 14 67 -61z m-628 27 c4 -27
-48 -99 -73 -103 -11 -2 -30 8 -43 22 -31 33 -21 62 23 70 19 4 40 13 47 22
16 20 43 14 46 -11z m-117 -135 c0 -11 -9 -40 -21 -65 -23 -49 -51 -59 -69
-25 -15 28 -4 60 28 87 34 29 62 30 62 3z m383 -38 c26 -23 24 -109 -5 -139
-23 -25 -57 -29 -89 -12 -52 27 -43 123 14 157 34 20 51 19 80 -6z m427 -103
c20 -37 5 -62 -47 -81 -54 -19 -73 -12 -73 30 0 60 94 100 120 51z m-1602 -16
c23 -15 48 -40 55 -55 14 -32 20 -34 37 -13 25 31 84 7 102 -41 6 -18 15 -31
20 -28 11 7 10 82 -2 89 -16 10 -12 45 5 45 8 0 24 -5 34 -12 15 -9 28 -9 59
0 59 18 79 15 107 -15 19 -21 25 -38 25 -73 -1 -71 -52 -165 -87 -158 -15 3
-18 13 -18 63 0 70 -19 83 -54 39 -17 -22 -24 -24 -36 -14 -12 10 -16 8 -25
-15 -5 -14 -10 -35 -10 -46 0 -45 -51 -109 -86 -109 -26 0 -30 10 -40 93 -7
67 -24 86 -24 28 0 -33 -8 -48 -51 -95 -51 -55 -52 -56 -108 -56 -70 0 -94 15
-89 55 2 25 12 34 54 55 66 33 98 58 118 97 22 44 20 66 -8 92 l-24 22 -16
-22 c-9 -13 -16 -28 -16 -33 0 -15 -32 -46 -46 -46 -8 0 -36 -14 -64 -31 -43
-27 -55 -30 -78 -21 -15 6 -42 14 -59 17 -18 4 -33 10 -33 14 0 12 32 38 56
45 29 9 58 42 45 50 -11 7 -66 -18 -89 -40 -7 -8 -17 -14 -22 -14 -4 0 -13
-13 -20 -30 -17 -42 -5 -95 28 -119 42 -32 72 -64 72 -78 0 -16 -3 -16 -70 2
-67 18 -72 18 -94 2 -16 -12 -16 -14 4 -40 30 -38 23 -76 -18 -100 -43 -25
-75 -16 -104 30 -19 31 -23 51 -22 108 2 116 47 183 160 239 32 16 73 40 90
53 43 32 150 73 193 74 20 1 47 5 61 9 39 13 43 12 88 -17z m773 -34 c52 -55
35 -119 -32 -119 -53 0 -79 77 -43 128 21 30 41 28 75 -9z m378 -73 c7 -8 11
-27 9 -43 -2 -23 -8 -28 -32 -28 -38 0 -76 46 -56 70 16 19 64 20 79 1z m369
-16 c35 0 44 -17 35 -63 -10 -51 -32 -77 -64 -77 -35 0 -49 23 -49 84 0 62 7
78 30 66 10 -6 32 -10 48 -10z m-661 -82 c44 -41 21 -121 -32 -110 -36 6 -55
71 -31 107 20 31 33 31 63 3z m403 -18 c26 -26 25 -39 -2 -49 -31 -11 -54 -3
-66 24 -20 43 31 62 68 25z m135 -1 c21 -33 -25 -82 -67 -71 -23 6 -34 48 -18
67 14 17 76 20 85 4z m-1051 -105 c9 -8 16 -20 16 -26 0 -6 10 -8 21 -5 15 4
30 -3 50 -23 48 -47 38 -143 -25 -242 -24 -38 -39 -50 -103 -76 -62 -26 -75
-29 -80 -16 -3 8 2 23 11 33 9 10 16 25 16 33 0 9 7 18 15 22 16 6 21 66 5 66
-23 0 -60 -57 -71 -110 -13 -66 -30 -87 -77 -96 -31 -6 -39 -3 -60 21 -29 34
-24 69 17 105 20 17 29 34 29 55 0 23 10 38 48 69 65 54 124 116 124 132 0 16
33 74 42 74 4 0 14 -7 22 -16z m702 -30 c31 -40 27 -58 -19 -84 -22 -12 -31
-12 -64 -1 -71 25 -92 64 -56 103 11 13 30 18 64 18 43 0 51 -3 75 -36z m-927
-86 c-43 -36 -101 -52 -159 -43 -25 4 -55 7 -68 6 -30 -1 -39 25 -16 50 16 18
26 20 84 15 49 -5 80 -2 125 12 53 16 60 17 64 3 2 -8 -12 -28 -30 -43z m1092
-6 c29 -29 30 -55 6 -84 -52 -65 -142 -32 -135 49 2 28 9 41 28 51 30 15 79 8
101 -16z m-1237 -108 c9 -8 16 -30 16 -47 0 -18 4 -46 9 -64 11 -39 -9 -73
-44 -73 -46 0 -70 -22 -134 -120 -36 -55 -72 -102 -80 -105 -17 -7 -41 20 -41
46 0 9 -16 36 -35 59 -19 23 -35 45 -35 48 0 4 38 25 85 47 93 43 98 49 97
132 0 45 2 53 18 53 11 0 24 -9 30 -20 17 -32 47 -25 55 13 11 47 32 58 59 31z
m1435 -10 c23 -19 31 -34 31 -59 0 -30 -3 -33 -37 -39 -82 -13 -111 -8 -127
22 -40 78 61 137 133 76z m-911 -86 c12 -16 -7 -118 -32 -166 -53 -103 -98
-142 -164 -142 -64 0 -82 -13 -82 -61 0 -54 -30 -81 -123 -108 -39 -13 -85
-29 -102 -36 -16 -8 -60 -18 -96 -21 -59 -6 -69 -4 -88 15 -28 28 -27 37 12
76 23 23 56 40 119 59 47 14 98 26 112 26 32 0 35 25 4 49 l-22 18 50 28 c27
15 60 35 74 44 14 9 43 25 65 36 55 28 173 116 213 159 35 39 44 43 60 24z
m-800 -44 c27 -19 28 -35 2 -52 -17 -10 -30 -10 -76 4 -56 16 -78 39 -53 55
23 14 103 10 127 -7z m2216 5 c56 -26 25 -71 -43 -62 -27 4 -41 1 -51 -11 -17
-22 -15 -84 5 -106 8 -9 15 -34 15 -55 0 -64 14 -29 15 40 2 78 14 95 68 95
99 0 188 -52 203 -118 10 -48 12 -51 55 -72 59 -31 132 -102 184 -180 45 -67
56 -90 84 -170 12 -33 22 -46 39 -48 32 -5 48 -39 28 -61 -9 -10 -16 -35 -16
-60 0 -23 -5 -52 -11 -64 -18 -34 -61 -78 -88 -88 -53 -21 -96 74 -56 127 17
23 20 64 3 64 -6 0 -22 -10 -35 -22 -19 -18 -28 -20 -50 -12 -27 9 -61 56 -62
85 -1 9 -21 41 -45 70 -46 56 -66 108 -66 172 0 33 3 37 24 37 35 0 38 12 16
57 -19 39 -21 41 -77 46 -115 12 -158 20 -166 33 -14 23 -28 15 -25 -13 2 -19
13 -32 33 -43 17 -8 33 -19 36 -23 4 -5 -16 -42 -43 -82 -58 -86 -93 -105
-192 -105 -74 0 -124 27 -139 75 -5 17 -11 32 -13 34 -4 4 -70 -58 -189 -175
-52 -52 -81 -73 -107 -78 -89 -16 -141 54 -112 152 18 60 102 162 147 178 29
11 50 40 40 57 -11 19 11 47 46 57 58 15 141 -15 161 -59 7 -14 16 -33 20 -41
5 -10 19 -14 44 -12 22 2 47 -3 62 -13 39 -25 45 -10 22 52 -11 32 -17 58 -12
60 32 11 37 24 39 101 5 146 36 192 131 192 29 0 64 -5 78 -11z m-394 -48 c32
-27 35 -33 34 -84 0 -69 -19 -92 -80 -102 -41 -6 -48 -4 -71 21 -22 24 -25 34
-21 90 3 51 8 66 28 83 35 28 70 26 110 -8z m-2432 -220 c69 -66 91 -111 98
-196 5 -55 2 -64 -26 -105 -17 -25 -40 -60 -51 -77 -12 -18 -25 -33 -29 -33
-4 0 -15 -17 -23 -39 -11 -27 -24 -41 -43 -45 l-27 -7 5 -102 c3 -56 9 -109
12 -118 10 -24 -20 -52 -44 -39 -25 13 -40 61 -47 153 -3 42 -11 77 -16 77 -6
0 -21 -9 -33 -21 -18 -17 -26 -19 -43 -10 -12 7 -21 19 -21 29 0 9 -11 35 -25
56 -22 36 -23 41 -9 68 8 15 18 28 22 28 8 0 21 25 61 114 21 46 24 48 55 43
44 -7 61 4 47 31 -6 11 -11 29 -11 39 0 11 -16 34 -35 53 -38 36 -45 64 -19
74 29 11 50 6 84 -19 19 -14 37 -25 41 -25 10 0 -17 78 -33 97 -9 11 -9 17 3
24 28 17 48 8 107 -50z m1361 -10 c20 -13 18 -124 -2 -172 -9 -19 -33 -50 -54
-68 -92 -79 -209 -110 -350 -93 -70 8 -93 7 -155 -9 -40 -10 -82 -23 -93 -28
-11 -5 -45 -19 -75 -31 -30 -12 -61 -24 -67 -27 -22 -9 -14 42 10 64 36 33
128 81 180 93 26 7 47 16 47 20 0 5 21 10 48 13 66 7 220 34 263 47 54 15 110
58 168 125 28 33 51 63 51 68 0 9 12 9 29 -2z m81 -261 c17 -42 7 -101 -27
-157 -32 -52 -47 -62 -134 -89 -30 -9 -66 -25 -78 -35 -21 -17 -21 -20 -7 -41
10 -14 16 -44 16 -78 0 -76 8 -104 26 -89 8 6 14 19 14 27 0 42 64 173 97 199
19 15 53 0 53 -22 0 -8 -11 -49 -25 -90 -22 -67 -24 -84 -16 -141 15 -106 80
-204 135 -204 13 0 7 14 -27 63 -29 41 -47 79 -53 112 -14 78 -3 117 26 83 5
-7 25 -31 42 -52 123 -149 183 -196 328 -259 19 -8 70 -18 113 -22 66 -6 77
-10 77 -26 0 -11 -19 -32 -42 -50 -41 -29 -47 -31 -114 -27 -83 6 -169 44
-251 114 -57 49 -85 58 -50 17 69 -82 94 -105 145 -130 82 -39 259 -58 377
-39 65 10 83 -6 69 -61 -14 -56 -65 -78 -182 -78 -73 0 -92 -3 -92 -14 0 -17
-29 -51 -42 -51 -5 0 -24 -11 -42 -25 -38 -29 -62 -31 -111 -11 -35 15 -44 36
-24 59 5 7 18 28 27 47 9 19 29 41 45 48 47 23 42 28 -108 92 -11 5 -58 27
-105 49 -131 61 -220 162 -251 287 -6 24 -15 46 -19 49 -9 6 -50 -77 -50 -103
0 -21 -18 -28 -85 -31 -21 -1 -41 -4 -44 -6 -7 -7 30 -45 44 -45 27 0 81 -83
85 -130 8 -92 1 -122 -40 -162 -22 -22 -45 -38 -52 -36 -13 5 -24 40 -38 126
-9 59 -13 65 -85 138 -44 44 -53 59 -67 120 -18 80 -14 150 10 159 17 6 51
-29 52 -54 0 -26 42 -83 53 -72 7 7 5 18 -7 36 -42 64 -28 158 30 204 l26 21
-27 10 c-14 5 -35 10 -46 10 -13 0 -19 7 -19 22 0 25 97 123 146 148 71 36
147 95 210 164 75 81 90 85 114 26z m1038 -49 c18 -53 4 -86 -44 -106 -21 -9
-40 -28 -54 -54 -11 -22 -33 -47 -50 -56 -40 -21 -103 -19 -123 3 -14 16 -12
20 25 57 22 22 46 52 53 66 16 30 110 118 140 130 30 12 38 6 53 -40z m382 19
c18 -18 20 -33 20 -192 0 -193 9 -158 -89 -318 -25 -41 -75 -99 -118 -139
l-74 -68 50 -22 c59 -25 68 -26 115 -6 43 18 133 22 148 7 8 -8 6 -30 -7 -79
-9 -37 -21 -88 -25 -113 -9 -51 -24 -88 -57 -142 -19 -31 -33 -39 -92 -58 -46
-14 -78 -30 -90 -47 -32 -40 -69 -16 -84 54 -3 14 3 33 14 47 10 13 19 28 19
34 0 5 -44 12 -97 15 -115 6 -185 27 -203 63 -12 22 -11 27 8 47 22 21 30 22
191 22 126 0 175 -4 194 -14 36 -19 34 -32 -12 -74 -41 -37 -42 -47 -7 -47 23
0 73 54 92 100 17 41 -4 56 -92 64 -108 9 -191 55 -196 109 -3 30 -5 32 -48
35 -52 3 -94 30 -85 53 8 20 68 49 103 49 34 0 59 15 43 24 -18 11 -13 41 14
80 27 41 14 49 -27 17 -54 -43 -170 -71 -290 -71 -69 0 -69 0 -50 -20 10 -11
50 -28 87 -38 38 -9 70 -23 73 -30 2 -7 -16 -21 -43 -33 -74 -33 -167 -24
-233 20 -48 33 -120 132 -137 189 -3 12 -11 22 -16 22 -10 0 -11 46 0 73 6 15
20 5 91 -65 81 -79 85 -82 88 -56 2 16 11 30 23 33 28 9 16 21 -59 59 -77 39
-126 84 -149 135 l-15 36 -10 -35 c-11 -39 -4 -156 11 -174 5 -6 12 -26 16
-43 3 -18 11 -33 16 -33 5 0 9 -9 9 -19 0 -22 56 -111 77 -124 19 -12 16 -35
-5 -41 -24 -8 -87 18 -135 56 -49 39 -79 92 -127 226 -60 170 -66 182 -89 182
-18 0 -21 -6 -21 -39 0 -22 12 -72 26 -111 28 -78 26 -100 -7 -100 -48 0 -122
119 -144 232 -17 92 -4 171 38 217 28 32 42 37 66 22 20 -13 41 -77 29 -89 -5
-5 -8 -22 -6 -38 4 -28 5 -28 27 18 24 53 37 63 99 73 37 6 47 4 63 -14 11
-12 23 -37 26 -56 3 -19 9 -35 13 -35 5 0 19 19 33 43 14 23 36 51 49 62 12
12 30 32 40 45 14 22 18 23 31 10 8 -8 19 -33 25 -55 6 -22 20 -65 31 -95 12
-30 21 -63 21 -73 0 -11 14 -32 31 -48 28 -26 37 -29 103 -29 138 0 248 68
328 202 64 108 93 79 43 -44 -37 -92 -81 -156 -154 -226 -60 -57 -63 -63 -36
-56 59 13 91 41 189 164 109 137 258 290 281 290 8 0 24 -9 35 -20z m-1898
-75 c6 -29 -5 -40 -70 -70 -98 -46 -216 -146 -303 -259 -9 -12 -30 -57 -49
-101 -74 -180 -26 -367 118 -464 29 -20 52 -43 52 -52 0 -20 -58 -59 -87 -59
-65 0 -184 196 -214 352 -6 34 -13 65 -15 67 -2 2 -13 -7 -25 -20 -17 -20 -20
-33 -16 -70 5 -44 3 -51 -46 -118 -62 -85 -79 -88 -125 -25 -34 46 -72 125
-72 150 0 7 -22 36 -50 64 -27 27 -52 62 -55 77 -4 16 -20 65 -37 111 -30 81
-31 84 -19 155 19 110 22 117 41 117 31 0 62 -53 106 -185 42 -127 73 -190 87
-176 8 8 8 19 -1 44 -7 18 -12 38 -12 45 0 14 37 26 77 23 36 -2 48 12 45 53
-4 51 55 94 94 68 6 -4 14 -17 18 -29 10 -31 20 -29 38 10 57 119 240 277 322
277 12 0 55 9 96 19 98 25 97 25 102 -4z m-67 -202 c-11 -21 -61 -94 -112
-163 -51 -69 -95 -138 -99 -154 -11 -53 -45 -116 -70 -132 -23 -15 -26 -15
-44 1 -16 14 -20 31 -20 78 0 48 7 75 38 141 45 95 81 133 212 221 103 71 129
73 95 8z m2391 -164 c7 -5 25 -9 41 -7 42 3 53 -8 53 -53 0 -28 -8 -51 -27
-76 -21 -28 -28 -49 -31 -99 -4 -60 -6 -64 -44 -90 -43 -30 -41 -23 -22 -116
5 -23 2 -30 -19 -39 -36 -16 -79 3 -111 50 -31 45 -33 92 -7 158 10 26 31 98
46 158 14 61 28 116 31 124 5 14 69 8 90 -10z m-2436 -101 c0 -62 24 -174 40
-188 12 -10 97 -146 108 -172 6 -15 18 -53 26 -85 13 -50 13 -66 2 -116 -27
-115 -65 -124 -156 -37 -55 53 -62 63 -56 87 12 47 8 64 -21 105 -91 129 -85
114 -81 218 3 88 6 100 37 150 49 81 81 121 92 115 5 -4 9 -38 9 -77z m598
-388 c-2 -4 -27 -1 -57 6 -30 8 -56 12 -59 10 -9 -9 57 -66 76 -66 11 0 25 -7
32 -15 8 -10 31 -15 69 -15 95 0 127 -50 41 -64 -48 -8 -157 26 -222 69 -38
25 -80 96 -62 102 35 12 36 21 10 55 -28 38 -42 87 -32 115 6 14 26 -2 107
-86 55 -56 99 -106 97 -111z m-127 -147 c59 -35 70 -38 156 -41 80 -3 93 -6
93 -21 0 -22 -35 -54 -77 -71 -69 -27 -164 16 -231 103 -23 30 -42 57 -42 60
0 17 44 4 101 -30z m-144 -69 c18 -14 33 -30 33 -35 0 -19 -63 -89 -80 -89
-10 0 -29 11 -42 25 -29 29 -28 67 5 103 26 28 42 28 84 -4z m-297 -56 c36
-35 81 -76 98 -91 36 -33 39 -48 15 -77 -23 -27 -68 -25 -120 5 -24 13 -43 20
-43 15 0 -5 23 -33 50 -62 39 -41 50 -60 50 -85 0 -31 -2 -33 -32 -32 -53 0
-92 21 -139 73 -41 45 -44 52 -44 105 0 55 1 56 32 66 33 9 33 9 27 61 -13
104 13 109 106 22z m1840 -15 c0 -21 -67 -83 -117 -107 -21 -10 -46 -22 -55
-27 -10 -5 -25 -9 -33 -9 -42 0 73 133 130 149 49 15 75 13 75 -6z m1 -169
c-19 -70 -30 -84 -71 -84 -35 0 -167 -72 -185 -99 -10 -18 -75 -31 -101 -21
-36 14 -29 36 29 93 38 38 85 68 177 114 132 64 151 72 161 67 4 -2 -1 -33
-10 -70z m-2224 -62 c12 -7 34 -28 49 -47 33 -44 27 -78 -16 -93 -17 -7 -30
-18 -30 -28 0 -13 6 -15 31 -10 43 8 109 -23 143 -66 30 -40 32 -51 11 -68
-17 -14 -16 -14 -107 36 -16 8 -47 18 -70 22 -33 6 -43 12 -48 32 -4 15 -15
26 -33 31 -25 7 -69 37 -109 76 -17 15 -17 18 -1 35 15 17 15 18 -10 18 -86 0
-74 61 18 93 34 12 47 12 95 -3 30 -9 65 -22 77 -28z m269 -138 c9 -50 2 -79
-22 -82 -40 -6 -82 96 -56 134 24 36 66 7 78 -52z m196 -1 c9 -10 23 -44 32
-75 15 -53 15 -59 0 -91 -23 -49 -54 -62 -143 -62 -60 0 -82 4 -103 20 -37 27
-35 35 8 35 83 0 154 68 154 147 0 35 3 43 18 43 11 0 26 -8 34 -17z m1256
-146 c9 -10 -2 -18 -48 -36 -32 -13 -72 -37 -88 -55 -32 -34 -86 -120 -96
-154 -5 -13 -16 -22 -28 -22 -19 0 -20 4 -14 56 15 128 56 175 178 208 67 19
83 19 96 3z"/>
<path d="M4660 3321 c0 -5 3 -11 8 -13 17 -8 132 -194 132 -215 0 -32 13 -29
27 7 15 40 -14 98 -88 173 -54 54 -79 69 -79 48z"/>
<path d="M1480 3240 c-8 -4 -28 -12 -45 -17 -25 -7 -31 -14 -33 -42 -2 -18 1
-38 6 -43 13 -13 62 30 79 70 16 38 15 43 -7 32z"/>
<path d="M4209 2895 c-52 -34 -146 -128 -133 -132 6 -2 37 7 68 21 71 32 87
27 74 -20 -19 -71 19 -99 53 -39 20 34 23 54 21 138 -2 52 -4 57 -24 56 -13 0
-39 -11 -59 -24z"/>
<path d="M3765 2771 l-40 -7 42 -5 c23 -2 47 -3 52 -1 12 4 5 23 -7 21 -4 -1
-25 -5 -47 -8z"/>
<path d="M4067 2633 c-15 -14 -6 -23 22 -23 37 0 62 10 55 21 -6 10 -67 12
-77 2z"/>
<path d="M1918 2766 c-9 -13 -20 -35 -23 -49 -7 -25 8 -67 24 -67 7 0 31 104
31 133 0 14 -16 6 -32 -17z"/>
<path d="M1736 2518 c-11 -124 18 -151 77 -71 34 47 30 61 -23 83 -16 7 -33
24 -38 39 -7 21 -10 12 -16 -51z"/>
<path d="M1895 1740 c-18 -8 -17 -9 8 -9 16 -1 26 3 22 9 -3 6 -7 10 -8 9 -1
0 -11 -4 -22 -9z"/>
<path d="M3901 1339 c-13 -11 -21 -22 -18 -25 7 -8 87 27 87 38 0 15 -45 7
-69 -13z"/>
<path d="M2226 921 c-20 -62 -20 -61 4 -61 10 0 25 10 31 23 7 12 19 27 28 34
20 15 4 47 -26 51 -16 2 -24 -7 -37 -47z"/>
<path d="M2737 916 c-3 -8 0 -31 8 -50 8 -20 15 -47 15 -61 0 -18 5 -25 19
-25 19 0 31 18 31 50 0 9 6 23 14 29 18 15 37 -8 30 -36 -7 -27 8 -36 40 -22
26 12 52 61 41 78 -13 22 -61 39 -126 46 -55 6 -67 4 -72 -9z"/>
<path d="M3452 813 c-12 -24 -3 -89 14 -104 18 -15 28 10 29 71 0 34 -4 45
-17 48 -9 2 -21 -5 -26 -15z"/>
</g>
</svg>
